<svg width="18" height="18" viewBox="0 0 18 18" fill="none" xmlns="http://www.w3.org/2000/svg">
    <path d="M12.5022 1.50031C15.0527 1.50038 16.4926 2.94696 16.5003 5.49738V12.5032C16.5001 15.0529 15.0527 16.5002 12.5022 16.5003H5.49732C2.94698 16.5001 1.50041 15.0528 1.50025 12.5032V5.49738C1.50041 2.94704 2.94698 1.50047 5.49732 1.50031H12.5022ZM5.87232 7.05792C5.66994 6.93064 5.41477 6.93061 5.21314 7.05792C5.00989 7.18542 4.89767 7.41745 4.92017 7.6507V12.8323C4.94942 13.1548 5.21974 13.3948 5.54224 13.3948C5.8654 13.3947 6.13432 13.1548 6.16431 12.8323V7.6507C6.18756 7.41745 6.07407 7.18542 5.87232 7.05792ZM9.37525 4.59796C9.16459 4.47052 8.90997 4.47062 8.70826 4.59796C8.50501 4.72471 8.39256 4.95823 8.41431 5.19073V12.8323C8.45256 13.1548 8.72236 13.3948 9.03736 13.3948C9.36047 13.3947 9.62944 13.1547 9.65943 12.8323V5.19073C9.68943 4.95825 9.57773 4.72472 9.37525 4.59796ZM12.8167 9.78058C12.615 9.6532 12.3606 9.65319 12.1506 9.78058C11.9475 9.90801 11.8357 10.1318 11.8655 10.3724V12.8323C11.8955 13.1548 12.1644 13.3947 12.4876 13.3948C12.8026 13.3948 13.0724 13.1548 13.1106 12.8323V10.3724C13.1322 10.1318 13.0198 9.908 12.8167 9.78058Z"
          fill="#C4C7DB"/>
</svg>