<svg width="16" height="18" viewBox="0 0 16 18" fill="none" xmlns="http://www.w3.org/2000/svg">
    <g clip-path="url(#clip0_17_682)">
        <path d="M13.3333 3V12H5.33333V3H13.3333ZM13.3333 1.5H5.33333C4.6 1.5 4 2.175 4 3V12C4 12.825 4.6 13.5 5.33333 13.5H13.3333C14.0667 13.5 14.6667 12.825 14.6667 12V3C14.6667 2.175 14.0667 1.5 13.3333 1.5ZM7.66667 8.7525L8.79333 10.4475L10.4467 8.1225L12.6667 11.25H6L7.66667 8.7525ZM1.33333 4.5V15C1.33333 15.825 1.93333 16.5 2.66667 16.5H12V15H2.66667V4.5H1.33333Z"
              fill="#808495"/>
    </g>
    <defs>
        <clipPath id="clip0_17_682">
            <rect width="16" height="18" fill="white"/>
        </clipPath>
    </defs>
</svg>
